<mxfile host="65bd71144e" scale="1" border="10">
    <diagram id="-rriOPSDnHkLpZKLwRpb" name="Page-1">
        <mxGraphModel dx="3237" dy="2675" grid="1" gridSize="10" guides="1" tooltips="1" connect="1" arrows="1" fold="1" page="1" pageScale="1" pageWidth="850" pageHeight="1100" background="#FFFFFF" math="0" shadow="0">
            <root>
                <mxCell id="0"/>
                <mxCell id="1" parent="0"/>
                <mxCell id="343" style="edgeStyle=elbowEdgeStyle;html=1;exitX=0.5;exitY=1;exitDx=0;exitDy=0;entryX=0.5;entryY=0;entryDx=0;entryDy=0;endArrow=none;endFill=0;elbow=vertical;rounded=0;jumpStyle=arc;" parent="1" source="346" target="347" edge="1">
                    <mxGeometry relative="1" as="geometry">
                        <mxPoint x="-2300.58" y="-2022.46" as="sourcePoint"/>
                        <mxPoint x="-2380.59" y="-1962.46" as="targetPoint"/>
                    </mxGeometry>
                </mxCell>
                <mxCell id="344" style="edgeStyle=elbowEdgeStyle;elbow=vertical;html=1;exitX=0.5;exitY=1;exitDx=0;exitDy=0;entryX=0.5;entryY=0;entryDx=0;entryDy=0;endArrow=none;endFill=0;rounded=0;jumpStyle=arc;" parent="1" source="346" target="349" edge="1">
                    <mxGeometry relative="1" as="geometry"/>
                </mxCell>
                <mxCell id="346" value="UTENTE" style="whiteSpace=wrap;html=1;" parent="1" vertex="1">
                    <mxGeometry x="-2360.61" y="-2120.82" width="80" height="40" as="geometry"/>
                </mxCell>
                <mxCell id="347" value="GUEST" style="whiteSpace=wrap;html=1;" parent="1" vertex="1">
                    <mxGeometry x="-2480" y="-2001.46" width="80" height="40" as="geometry"/>
                </mxCell>
                <mxCell id="349" value="REGISTRATO" style="whiteSpace=wrap;html=1;" parent="1" vertex="1">
                    <mxGeometry x="-2240" y="-2001.46" width="80" height="40" as="geometry"/>
                </mxCell>
                <mxCell id="350" value="" style="shape=singleArrow;whiteSpace=wrap;html=1;arrowWidth=0.4;arrowSize=0.4;rotation=-90;fillColor=#000000;" parent="1" vertex="1">
                    <mxGeometry x="-2340.3" y="-2075.9" width="38.76" height="29.17" as="geometry"/>
                </mxCell>
                <mxCell id="351" value="(e)" style="text;html=1;align=center;verticalAlign=middle;resizable=0;points=[];autosize=1;strokeColor=none;fillColor=none;" parent="1" vertex="1">
                    <mxGeometry x="-2322.6099999999997" y="-2067.82" width="40" height="30" as="geometry"/>
                </mxCell>
                <mxCell id="352" value="" style="endArrow=oval;html=1;fillStyle=auto;strokeWidth=1;startSize=6;endSize=6;fillColor=#000000;startArrow=none;startFill=0;endFill=1;exitX=0.5;exitY=0;exitDx=0;exitDy=0;" parent="1" source="346" edge="1">
                    <mxGeometry width="50" height="50" relative="1" as="geometry">
                        <mxPoint x="-2180.58" y="-1539.8000000000002" as="sourcePoint"/>
                        <mxPoint x="-2320.58" y="-2144.98" as="targetPoint"/>
                    </mxGeometry>
                </mxCell>
                <mxCell id="353" value="nome utente" style="edgeLabel;html=1;align=center;verticalAlign=middle;resizable=0;points=[];" parent="352" vertex="1" connectable="0">
                    <mxGeometry x="0.4791" y="1" relative="1" as="geometry">
                        <mxPoint x="-30" y="-21" as="offset"/>
                    </mxGeometry>
                </mxCell>
                <mxCell id="354" value="" style="endArrow=oval;html=1;fillStyle=auto;strokeWidth=1;startSize=6;endSize=6;fillColor=#000000;startArrow=none;startFill=0;endFill=0;" parent="1" source="349" edge="1">
                    <mxGeometry width="50" height="50" relative="1" as="geometry">
                        <mxPoint x="-2278.91" y="-1693.1933333333332" as="sourcePoint"/>
                        <mxPoint x="-2240" y="-2020.8200000000002" as="targetPoint"/>
                    </mxGeometry>
                </mxCell>
                <mxCell id="355" value="password" style="edgeLabel;html=1;align=center;verticalAlign=middle;resizable=0;points=[];" parent="354" vertex="1" connectable="0">
                    <mxGeometry x="0.4791" y="1" relative="1" as="geometry">
                        <mxPoint x="-34" y="-16" as="offset"/>
                    </mxGeometry>
                </mxCell>
                <mxCell id="356" value="" style="endArrow=oval;html=1;fillStyle=auto;strokeWidth=1;startSize=6;endSize=6;fillColor=#000000;startArrow=none;startFill=0;endFill=0;exitX=1;exitY=0.75;exitDx=0;exitDy=0;" parent="1" source="349" edge="1">
                    <mxGeometry width="50" height="50" relative="1" as="geometry">
                        <mxPoint x="-2263.91" y="-1699.8600000000001" as="sourcePoint"/>
                        <mxPoint x="-2130" y="-1960" as="targetPoint"/>
                    </mxGeometry>
                </mxCell>
                <mxCell id="357" value="indirizzo&lt;br&gt;mail" style="edgeLabel;html=1;align=center;verticalAlign=middle;resizable=0;points=[];" parent="356" vertex="1" connectable="0">
                    <mxGeometry x="0.4791" y="1" relative="1" as="geometry">
                        <mxPoint x="35" y="2" as="offset"/>
                    </mxGeometry>
                </mxCell>
                <mxCell id="358" value="" style="endArrow=oval;html=1;fillStyle=auto;strokeWidth=1;startSize=6;endSize=6;fillColor=#000000;startArrow=none;startFill=0;endFill=0;" parent="1" edge="1">
                    <mxGeometry width="50" height="50" relative="1" as="geometry">
                        <mxPoint x="-2188.9244084278766" y="-2001.46" as="sourcePoint"/>
                        <mxPoint x="-2180" y="-2030.8200000000002" as="targetPoint"/>
                    </mxGeometry>
                </mxCell>
                <mxCell id="359" value="numero&lt;br&gt;di&lt;br&gt;telefono" style="edgeLabel;html=1;align=center;verticalAlign=middle;resizable=0;points=[];" parent="358" vertex="1" connectable="0">
                    <mxGeometry x="0.4791" y="1" relative="1" as="geometry">
                        <mxPoint x="13" y="-36" as="offset"/>
                    </mxGeometry>
                </mxCell>
                <mxCell id="360" value="" style="endArrow=oval;html=1;fillStyle=auto;strokeWidth=1;startSize=6;endSize=6;fillColor=#000000;startArrow=none;startFill=0;endFill=0;" parent="1" source="349" edge="1">
                    <mxGeometry width="50" height="50" relative="1" as="geometry">
                        <mxPoint x="-2243.91" y="-1679.8600000000001" as="sourcePoint"/>
                        <mxPoint x="-2140" y="-2020.8200000000002" as="targetPoint"/>
                    </mxGeometry>
                </mxCell>
                <mxCell id="361" value="data&lt;br&gt;di&lt;br&gt;nascita" style="edgeLabel;html=1;align=center;verticalAlign=middle;resizable=0;points=[];" parent="360" vertex="1" connectable="0">
                    <mxGeometry x="0.4791" y="1" relative="1" as="geometry">
                        <mxPoint x="37" y="-13" as="offset"/>
                    </mxGeometry>
                </mxCell>
                <mxCell id="362" value="" style="endArrow=oval;html=1;fillStyle=auto;strokeWidth=1;startSize=6;endSize=6;fillColor=#000000;startArrow=none;startFill=0;endFill=0;" parent="1" source="349" edge="1">
                    <mxGeometry width="50" height="50" relative="1" as="geometry">
                        <mxPoint x="-2209.33" y="-1992.04" as="sourcePoint"/>
                        <mxPoint x="-2210" y="-2020.8200000000002" as="targetPoint"/>
                    </mxGeometry>
                </mxCell>
                <mxCell id="363" value="LIS" style="edgeLabel;html=1;align=center;verticalAlign=middle;resizable=0;points=[];" parent="362" vertex="1" connectable="0">
                    <mxGeometry x="0.4791" y="1" relative="1" as="geometry">
                        <mxPoint x="-1" y="-18" as="offset"/>
                    </mxGeometry>
                </mxCell>
                <mxCell id="373" value="" style="endArrow=oval;html=1;fillStyle=auto;strokeWidth=1;startSize=6;endSize=6;fillColor=#000000;startArrow=none;startFill=0;endFill=0;exitX=1.005;exitY=0.422;exitDx=0;exitDy=0;exitPerimeter=0;" parent="1" source="349" edge="1">
                    <mxGeometry width="50" height="50" relative="1" as="geometry">
                        <mxPoint x="-2170.314960629921" y="-1951.46" as="sourcePoint"/>
                        <mxPoint x="-2130" y="-1990" as="targetPoint"/>
                    </mxGeometry>
                </mxCell>
                <mxCell id="374" value="premium" style="edgeLabel;html=1;align=center;verticalAlign=middle;resizable=0;points=[];" parent="373" vertex="1" connectable="0">
                    <mxGeometry x="0.4791" y="1" relative="1" as="geometry">
                        <mxPoint x="38" y="-1" as="offset"/>
                    </mxGeometry>
                </mxCell>
                <mxCell id="382" value="&lt;font style=&quot;font-size: 10px;&quot;&gt;(0,1)&lt;/font&gt;" style="text;html=1;align=center;verticalAlign=middle;resizable=0;points=[];autosize=1;strokeColor=none;fillColor=none;" parent="1" vertex="1">
                    <mxGeometry x="-2191" y="-2037.8200000000002" width="40" height="30" as="geometry"/>
                </mxCell>
                <mxCell id="383" value="(0,1)" style="text;html=1;align=center;verticalAlign=middle;resizable=0;points=[];autosize=1;strokeColor=none;fillColor=none;fontSize=10;" parent="1" vertex="1">
                    <mxGeometry x="-2169" y="-1970" width="39" height="24" as="geometry"/>
                </mxCell>
                <mxCell id="384" value="" style="edgeStyle=none;shape=connector;rounded=1;fillStyle=auto;html=1;labelBackgroundColor=default;strokeColor=default;strokeWidth=1;fontFamily=Helvetica;fontSize=11;fontColor=default;endArrow=none;startSize=6;endSize=6;fillColor=#000000;entryX=0.5;entryY=0;entryDx=0;entryDy=0;exitX=0.376;exitY=0.995;exitDx=0;exitDy=0;exitPerimeter=0;" parent="1" source="349" target="386" edge="1">
                    <mxGeometry relative="1" as="geometry">
                        <mxPoint x="-2210" y="-1960" as="sourcePoint"/>
                        <Array as="points">
                            <mxPoint x="-2210" y="-1940"/>
                            <mxPoint x="-2280" y="-1940"/>
                        </Array>
                    </mxGeometry>
                </mxCell>
                <mxCell id="385" value="(0, 1)" style="edgeLabel;html=1;align=center;verticalAlign=middle;resizable=0;points=[];fontSize=11;fontFamily=Helvetica;fontColor=default;" parent="384" vertex="1" connectable="0">
                    <mxGeometry x="-0.2675" y="1" relative="1" as="geometry">
                        <mxPoint x="-71" y="9" as="offset"/>
                    </mxGeometry>
                </mxCell>
                <mxCell id="386" value="&lt;font style=&quot;font-size: 12px;&quot;&gt;gestione&lt;sub style=&quot;&quot;&gt;(S-C)&lt;/sub&gt;&lt;/font&gt;" style="rhombus;whiteSpace=wrap;html=1;" parent="1" vertex="1">
                    <mxGeometry x="-2340.2999999999997" y="-1921.1399999999999" width="120" height="40.28" as="geometry"/>
                </mxCell>
                <mxCell id="390" value="" style="endArrow=none;html=1;entryX=0.5;entryY=1;entryDx=0;entryDy=0;" parent="1" target="386" edge="1">
                    <mxGeometry width="50" height="50" relative="1" as="geometry">
                        <mxPoint x="-2280.3" y="-1860" as="sourcePoint"/>
                        <mxPoint x="-2099.31" y="-1911.32" as="targetPoint"/>
                    </mxGeometry>
                </mxCell>
                <mxCell id="391" value="" style="endArrow=oval;html=1;fillStyle=auto;strokeWidth=1;startSize=6;endSize=6;fillColor=#000000;startArrow=none;startFill=0;endFill=0;strokeColor=#000000;exitX=0;exitY=0.5;exitDx=0;exitDy=0;" parent="1" source="349" edge="1">
                    <mxGeometry width="50" height="50" relative="1" as="geometry">
                        <mxPoint x="-2178.2104769412695" y="-1899.2599999999998" as="sourcePoint"/>
                        <mxPoint x="-2280" y="-1965" as="targetPoint"/>
                    </mxGeometry>
                </mxCell>
                <mxCell id="394" value="&lt;font style=&quot;font-size: 10px;&quot;&gt;(0, 1)&lt;/font&gt;" style="edgeLabel;html=1;align=center;verticalAlign=middle;resizable=0;points=[];fontSize=11;fontFamily=Helvetica;fontColor=default;" parent="1" vertex="1" connectable="0">
                    <mxGeometry x="-2260.000519365158" y="-1961.4597648541803" as="geometry"/>
                </mxCell>
                <mxCell id="395" value="(0, N)" style="edgeLabel;html=1;align=center;verticalAlign=middle;resizable=0;points=[];" parent="1" vertex="1" connectable="0">
                    <mxGeometry x="-2134.0003834820077" y="-1928.003047241619" as="geometry"/>
                </mxCell>
                <mxCell id="396" value="rinnovo" style="rhombus;whiteSpace=wrap;html=1;" parent="1" vertex="1">
                    <mxGeometry x="-2191.0000000000005" y="-1921.1399999999999" width="80" height="40" as="geometry"/>
                </mxCell>
                <mxCell id="397" value="" style="edgeStyle=none;shape=connector;rounded=1;fillStyle=auto;html=1;labelBackgroundColor=default;strokeColor=default;strokeWidth=1;fontFamily=Helvetica;fontSize=11;fontColor=default;endArrow=none;startSize=6;endSize=6;fillColor=#000000;exitX=0.5;exitY=1;exitDx=0;exitDy=0;" parent="1" edge="1">
                    <mxGeometry relative="1" as="geometry">
                        <mxPoint x="-2151.2200000000007" y="-1881.1399999999999" as="sourcePoint"/>
                        <mxPoint x="-2150.82" y="-1861.1399999999999" as="targetPoint"/>
                    </mxGeometry>
                </mxCell>
                <mxCell id="398" value="" style="edgeStyle=none;shape=connector;rounded=1;fillStyle=auto;html=1;labelBackgroundColor=default;strokeColor=default;strokeWidth=1;fontFamily=Helvetica;fontSize=11;fontColor=default;endArrow=none;startSize=6;endSize=6;fillColor=#000000;entryX=0.5;entryY=0;entryDx=0;entryDy=0;exitX=0.612;exitY=0.987;exitDx=0;exitDy=0;exitPerimeter=0;" parent="1" source="349" target="396" edge="1">
                    <mxGeometry relative="1" as="geometry">
                        <mxPoint x="-2190" y="-1950" as="sourcePoint"/>
                        <mxPoint x="-2220" y="-1920.32" as="targetPoint"/>
                        <Array as="points">
                            <mxPoint x="-2191" y="-1940"/>
                            <mxPoint x="-2151" y="-1940"/>
                        </Array>
                    </mxGeometry>
                </mxCell>
                <mxCell id="400" value="" style="endArrow=oval;html=1;fillStyle=auto;strokeWidth=1;startSize=6;endSize=6;fillColor=#000000;startArrow=none;startFill=0;endFill=0;exitX=-0.003;exitY=0.13;exitDx=0;exitDy=0;exitPerimeter=0;fontSize=11;" edge="1" parent="1">
                    <mxGeometry width="50" height="50" relative="1" as="geometry">
                        <mxPoint x="-2240" y="-1991.7999999999997" as="sourcePoint"/>
                        <mxPoint x="-2299.76" y="-2006.3600000000001" as="targetPoint"/>
                    </mxGeometry>
                </mxCell>
                <mxCell id="401" value="data di&lt;br&gt;registrazione" style="text;html=1;align=center;verticalAlign=middle;resizable=0;points=[];autosize=1;strokeColor=none;fillColor=none;fontSize=11;" vertex="1" parent="1">
                    <mxGeometry x="-2379.96" y="-2027" width="90" height="40" as="geometry"/>
                </mxCell>
                <mxCell id="402" value="affiliate" style="text;html=1;align=center;verticalAlign=middle;resizable=0;points=[];autosize=1;strokeColor=none;fillColor=none;" vertex="1" parent="1">
                    <mxGeometry x="-2336" y="-1979" width="56" height="26" as="geometry"/>
                </mxCell>
            </root>
        </mxGraphModel>
    </diagram>
</mxfile>